<svg width="721" height="615" viewBox="0 0 721 615" fill="none" xmlns="http://www.w3.org/2000/svg">
<path d="M479.41 614.998C469.544 615.076 459.772 613.068 450.733 609.106C433.143 601.286 421.353 584.904 419.193 565.345C416.743 543.137 426.188 521.307 433.507 506.821C442.702 488.613 454.066 471.245 465.056 454.458L467.932 450.057C478.62 433.688 490.686 415.937 505.909 394.174C513.681 383.067 521.642 371.82 529.344 360.947C547.408 335.425 566.096 309.024 583.681 282.565C607.313 247.019 631.771 208.341 650.599 166.397C660.518 144.303 667.284 123.908 671.355 104.045C673.588 93.2005 674.927 82.1906 675.359 71.1263C675.592 64.6799 675.834 58.0134 674.376 51.765C670.938 37.0196 659.148 25.0333 642.836 19.7089C635.641 17.4037 628.128 16.2498 620.574 16.2899C608.498 16.362 596.566 18.9248 585.521 23.8188C566.895 32.0121 550.754 45.6046 535.144 58.7483L533.111 60.4644C515.359 75.399 497.61 90.8264 480.359 106.355C445.503 137.698 411.263 170.599 378.586 204.209C365.492 217.669 352.35 231.548 339.647 244.969C323.111 262.429 306.017 280.483 288.783 297.869C252.975 333.995 222.308 361.185 192.283 383.428C177.793 394.152 158.473 407.903 137.37 419.101C115.547 430.678 95.2175 437.802 75.1817 440.878C70.0092 441.67 64.4854 442.445 58.8299 442.445C54.4305 442.498 50.0461 441.919 45.8108 440.724C38.5927 438.549 32.0454 434.57 26.785 429.16C18.9208 421.165 13.6122 410.93 11.8866 400.343C8.55825 380.154 10.9601 358.729 19.0131 336.662C26.2493 316.861 36.4011 296.672 49.1963 276.69C62.0485 256.629 76.9381 238.373 89.8123 223.161C100.935 210.017 112.395 196.794 123.482 183.998C128.007 178.774 132.533 173.546 137.059 168.316L185.873 111.785L193.934 102.452C199.309 96.2358 204.68 90.0153 210.049 83.7903C216.455 76.3538 223.169 68.3629 228.623 59.5887C234.866 49.5297 241.795 31.1585 237.677 21.8034C236.223 18.5032 233.501 16.5847 229.11 15.775C227.69 15.5173 226.25 15.3907 224.807 15.3966C220.126 15.3966 214.835 16.5363 208.156 18.9741C201.289 21.4866 194.378 25.4689 187.616 30.8108C174.324 41.3187 163.466 54.9156 152.927 68.0681C141.511 82.369 129.137 97.4576 114.977 110.971C84.6393 139.909 48.9839 162.669 9.98971 177.987C9.0983 178.344 8.14816 178.531 7.1883 178.537C3.74582 178.537 0.865425 176.012 0.162877 172.377C-0.212585 170.552 0.0658042 168.653 0.949191 167.014C1.83258 165.375 3.26436 164.1 4.99284 163.414C23.4665 156.103 41.1929 147.023 57.9254 136.299C75.3202 125.15 91.5518 112.276 106.375 97.8713C119.754 84.8596 131.583 70.1186 143.026 55.8617C154.236 41.8908 165.45 28.4655 179.352 17.7772C187.989 11.1371 205.333 0 224.456 0C225.307 0 226.164 -1.00977e-06 227.002 0.0660034C238.204 0.664443 246.959 5.90079 251.029 14.4286C255.982 24.8088 254.134 37.2001 251.714 45.763C246.094 65.6435 232.539 81.291 219.428 96.4236L217.153 99.0637L119.987 211.588L116.474 215.645C102.924 231.323 88.9121 247.534 76.3936 264.383C63.1658 282.28 51.6836 301.41 42.1049 321.507C27.6676 351.662 25.819 369.774 25.6873 380.775C25.5072 395.582 27.9881 405.496 33.9773 413.922C37.3583 418.679 41.6658 422.366 46.4344 424.58C49.9998 426.239 53.9824 427.009 58.9573 427.009C62.5017 426.953 66.0391 426.672 69.5482 426.168C88.4775 423.708 108.294 416.853 130.143 405.205C162.855 387.754 195.699 363.728 233.505 329.599C264.114 301.966 291.746 273.166 324.687 238.386C354.677 206.704 387.038 173.019 420.352 141.073C454.162 108.661 489.509 76.9655 525.387 46.8807L525.932 46.4407C542.262 32.7426 559.149 18.5824 579.229 9.82145C592.533 4.01746 606.892 0.946061 620.701 0.946061C627.475 0.933646 634.229 1.68794 640.834 3.19461C661.401 7.93372 678.156 20.7958 685.704 37.5917C692.427 52.5879 691.413 69.2474 689.766 85.0268C684.677 134.27 663.24 178.502 645.137 211.535C621.865 254.011 595.383 293.337 572.559 326.202C562.517 340.662 552.181 355.244 542.183 369.382C526.525 391.503 510.331 414.38 494.914 437.208C480.894 457.969 468.911 476.631 458.281 494.254C448.314 510.773 438.311 528.545 435.035 548.25C433.556 557.143 434.157 565.851 436.823 573.358C439.69 581.503 444.726 587.879 451.752 592.279C459.44 597.093 468.938 599.636 479.217 599.636C485.887 599.612 492.516 598.589 498.884 596.6C518.028 590.607 534.354 577.749 550.771 563.976C563.4 553.389 576.208 542.569 588.59 532.11C594.635 527.005 600.682 521.901 606.729 516.797C612.2 512.181 617.755 507.464 623.121 502.9C635.49 492.388 648.276 481.519 661.08 471.078C676.167 458.757 694.513 445.221 716.182 438C716.976 437.732 717.807 437.594 718.645 437.591C722.232 437.591 725.271 440.306 725.877 444.051C726.208 445.879 725.866 447.764 724.913 449.358C723.961 450.952 722.464 452.145 720.7 452.715C701.27 459.192 684.563 471.636 669.401 484.111C648.72 501.136 627.951 518.79 607.867 535.863C591.809 549.504 575.207 563.629 558.728 577.349C543.724 589.841 525.967 603.751 505.053 610.791C496.788 613.573 488.128 614.993 479.41 614.998Z" fill="url(#paint0_linear_660_2762)"/>
<defs>
<linearGradient id="paint0_linear_660_2762" x1="41.0907" y1="59.0211" x2="760.675" y2="442.995" gradientUnits="userSpaceOnUse">
<stop stop-color="#E6FCFF"/>
<stop offset="0.03" stop-color="#DDFAFE"/>
<stop offset="0.08" stop-color="#C3F4FB"/>
<stop offset="0.151042" stop-color="#9AEAF6"/>
<stop offset="0.630208" stop-color="#79E2F2"/>
<stop offset="0.796875" stop-color="#B3F5FF"/>
<stop offset="0.958333" stop-color="#C4F4FB" stop-opacity="0.62"/>
</linearGradient>
</defs>
</svg>
