<svg width="704" height="843" viewBox="0 0 704 843" fill="none" xmlns="http://www.w3.org/2000/svg">
<g clip-path="url(#clip0_171_3548)">
<mask id="mask0_171_3548" style="mask-type:alpha" maskUnits="userSpaceOnUse" x="0" y="0" width="704" height="843">
<rect width="704" height="843" fill="#D9D9D9"/>
</mask>
<g mask="url(#mask0_171_3548)">
<path opacity="0.7" d="M139.625 640.961L69.275 651.773C37.775 656.596 16.1 687.01 20.75 719.68C25.4 752.35 54.725 774.83 86.225 770.008L89.525 769.463C104.975 767.052 120.275 775.53 126.5 790.31C126.575 790.465 126.575 790.543 126.65 790.699C126.65 790.776 126.8 790.854 126.875 790.777C126.95 790.777 127.025 790.699 127.025 790.621L127.1 790.232C128.9 774.13 141.2 761.529 156.575 759.118H156.65C188.15 754.295 209.825 723.881 205.175 691.21C200.45 658.696 171.125 636.138 139.625 640.961C139.7 640.961 139.7 640.961 139.625 640.961Z" fill="url(#paint0_linear_171_3548)"/>
<path d="M343.742 -69.931L179.867 -110.146C106.592 -128.193 33.0919 -81.1322 15.6919 -5.05739C-1.63313 70.9396 43.6668 147.17 117.017 165.216L124.667 167.083C160.592 175.873 187.067 208.31 188.267 246.658V247.592C188.267 247.825 188.492 247.981 188.642 247.981C188.792 247.981 188.942 247.903 189.017 247.747C189.167 247.436 189.317 247.203 189.467 246.969C207.092 213.288 244.742 196.642 280.667 205.432H280.817C354.092 223.478 427.667 176.495 444.992 100.421V100.343C462.392 24.2679 417.017 -51.9624 343.742 -69.931Z" fill="white"/>
<path d="M343.742 -69.931L179.867 -110.146C106.592 -128.193 33.0919 -81.1322 15.6919 -5.05739C-1.63313 70.9396 43.6668 147.17 117.017 165.216L124.667 167.083C160.592 175.873 187.067 208.31 188.267 246.658V247.592C188.267 247.825 188.492 247.981 188.642 247.981C188.792 247.981 188.942 247.903 189.017 247.747C189.167 247.436 189.317 247.203 189.467 246.969C207.092 213.288 244.742 196.642 280.667 205.432H280.817C354.092 223.478 427.667 176.495 444.992 100.421V100.343C462.392 24.2679 417.017 -51.9624 343.742 -69.931Z" fill="url(#paint1_linear_171_3548)"/>
<g opacity="0.7">
<path d="M120.616 -19.6035L357.541 38.5805" stroke="#E4F9FC" stroke-width="7.96266" stroke-miterlimit="10"/>
<path d="M113.416 11.9756L350.341 70.1596" stroke="#E4F9FC" stroke-width="7.96266" stroke-miterlimit="10"/>
<path d="M120.616 -19.6035L357.541 38.5805" stroke="#E4F9FC" stroke-width="7.96266" stroke-miterlimit="10"/>
<path d="M106.142 43.5637L343.142 101.748" stroke="#E4F9FC" stroke-width="7.96266" stroke-miterlimit="10"/>
<path d="M98.9414 75.1431L263.341 115.514" stroke="#E4F9FC" stroke-width="7.96266" stroke-miterlimit="10"/>
</g>
<path opacity="0.6" d="M111 23H779L746.344 295H111V23Z" fill="url(#paint2_linear_171_3548)"/>
<path d="M744.201 24.8531L618.126 55.2674C561.726 68.8799 526.626 127.375 539.751 185.87C552.876 244.365 609.276 280.769 665.676 267.156L671.526 265.756C699.201 259.066 728.151 272.057 741.576 297.959L741.876 298.582C741.951 298.737 742.176 298.815 742.326 298.737C742.401 298.659 742.476 298.582 742.476 298.504V297.804C743.451 268.323 763.926 243.509 791.601 236.82H791.676C848.076 223.207 883.176 164.712 870.051 106.217C857.001 47.6444 800.601 11.2406 744.201 24.8531Z" fill="url(#paint3_linear_171_3548)"/>
<path d="M607.176 138.651L789.576 94.624" stroke="#E4F9FC" stroke-width="7.96266" stroke-miterlimit="10"/>
<path d="M612.576 162.997L794.976 118.97" stroke="#E4F9FC" stroke-width="7.96266" stroke-miterlimit="10"/>
<path d="M607.176 138.651L789.576 94.624" stroke="#E4F9FC" stroke-width="7.96266" stroke-miterlimit="10"/>
<path d="M618.051 187.268L800.451 143.241" stroke="#E4F9FC" stroke-width="7.96266" stroke-miterlimit="10"/>
<path d="M623.526 211.611L750.051 181.042" stroke="#E4F9FC" stroke-width="7.96266" stroke-miterlimit="10"/>
<path opacity="0.6" d="M680.3 398.736H152.15V563.797H680.3V398.736Z" fill="url(#paint4_linear_171_3548)"/>
<path d="M675.875 563.793C719.575 563.793 755 527.051 755 481.729C755 436.406 719.575 399.664 675.875 399.664C632.175 399.664 596.75 436.406 596.75 481.729C596.75 527.051 632.175 563.793 675.875 563.793Z" fill="url(#paint5_linear_171_3548)"/>
<path d="M643.025 467.34C647.664 467.34 651.425 463.44 651.425 458.628C651.425 453.817 647.664 449.916 643.025 449.916C638.386 449.916 634.625 453.817 634.625 458.628C634.625 463.44 638.386 467.34 643.025 467.34Z" fill="#79E2F2"/>
<path d="M634.25 488.032C647.075 514.946 678.425 525.914 704.375 512.69C705.2 512.301 706.025 511.835 706.775 511.368L634.25 488.032Z" fill="#79E2F2"/>
<g opacity="0.65">
<path d="M505.625 826.611C533.211 826.611 555.575 803.417 555.575 774.805C555.575 746.194 533.211 723 505.625 723C478.038 723 455.675 746.194 455.675 774.805C455.675 803.417 478.038 826.611 505.625 826.611Z" fill="url(#paint6_linear_171_3548)"/>
<path d="M484.849 765.783C487.79 765.783 490.174 763.31 490.174 760.26C490.174 757.21 487.79 754.737 484.849 754.737C481.909 754.737 479.524 757.21 479.524 760.26C479.524 763.31 481.909 765.783 484.849 765.783Z" fill="#79E2F2"/>
<path d="M501.275 801.487C506.204 801.487 510.2 797.343 510.2 792.23C510.2 787.118 506.204 782.974 501.275 782.974C496.345 782.974 492.35 787.118 492.35 792.23C492.35 797.343 496.345 801.487 501.275 801.487Z" fill="#79E2F2"/>
<path d="M530.974 779.469C533.915 779.469 536.299 776.997 536.299 773.947C536.299 770.896 533.915 768.424 530.974 768.424C528.034 768.424 525.649 770.896 525.649 773.947C525.649 776.997 528.034 779.469 530.974 779.469Z" fill="#79E2F2"/>
</g>
</g>
</g>
<defs>
<linearGradient id="paint0_linear_171_3548" x1="20.1836" y1="715.588" x2="205.755" y2="715.588" gradientUnits="userSpaceOnUse">
<stop stop-color="#79E2F2"/>
<stop offset="0.02" stop-color="#7CE3F2"/>
<stop offset="0.33" stop-color="#AAEEF8"/>
<stop offset="0.6" stop-color="#CBF5FC"/>
<stop offset="0.82" stop-color="#DFFAFE"/>
<stop offset="0.98" stop-color="#E6FCFF"/>
</linearGradient>
<linearGradient id="paint1_linear_171_3548" x1="12.0066" y1="66.9345" x2="448.708" y2="66.9369" gradientUnits="userSpaceOnUse">
<stop stop-color="#00C7E5" stop-opacity="0.6"/>
<stop offset="0.01" stop-color="#01C7E5" stop-opacity="0.6"/>
<stop offset="0.44" stop-color="#62E0F3" stop-opacity="0.49"/>
<stop offset="0.78" stop-color="#9DEFFC" stop-opacity="0.42"/>
<stop offset="1" stop-color="#B3F5FF" stop-opacity="0.4"/>
</linearGradient>
<linearGradient id="paint2_linear_171_3548" x1="111.045" y1="159.008" x2="779.009" y2="159.008" gradientUnits="userSpaceOnUse">
<stop stop-color="#E6FCFF" stop-opacity="0"/>
<stop offset="0.16" stop-color="#E6FCFF" stop-opacity="0.19"/>
<stop offset="0.47" stop-color="#E6FCFF" stop-opacity="0.53"/>
<stop offset="0.72" stop-color="#E6FCFF" stop-opacity="0.78"/>
<stop offset="0.91" stop-color="#E6FCFF" stop-opacity="0.94"/>
<stop offset="1" stop-color="#E6FCFF"/>
</linearGradient>
<linearGradient id="paint3_linear_171_3548" x1="625.319" y1="278.578" x2="793.058" y2="18.7202" gradientUnits="userSpaceOnUse">
<stop stop-color="#79E2F2"/>
<stop offset="1" stop-color="#E6FCFF"/>
</linearGradient>
<linearGradient id="paint4_linear_171_3548" x1="152.165" y1="481.294" x2="680.345" y2="481.294" gradientUnits="userSpaceOnUse">
<stop stop-color="#E6FCFF" stop-opacity="0"/>
<stop offset="1" stop-color="#E6FCFF"/>
</linearGradient>
<linearGradient id="paint5_linear_171_3548" x1="603.077" y1="520.994" x2="745.136" y2="449.769" gradientUnits="userSpaceOnUse">
<stop stop-color="#79E2F2"/>
<stop offset="1" stop-color="#E6FCFF"/>
</linearGradient>
<linearGradient id="paint6_linear_171_3548" x1="458.969" y1="799.975" x2="548.588" y2="755.036" gradientUnits="userSpaceOnUse">
<stop stop-color="#79E2F2"/>
<stop offset="1" stop-color="#E6FCFF"/>
</linearGradient>
<clipPath id="clip0_171_3548">
<rect width="704" height="843" fill="white"/>
</clipPath>
</defs>
</svg>
